<svg id="Grupo_7" data-name="Grupo 7" xmlns="http://www.w3.org/2000/svg" xmlns:xlink="http://www.w3.org/1999/xlink" width="674.567" height="165.606" viewBox="0 0 674.567 165.606">
  <defs>
    <clipPath id="clip-path">
      <rect id="Rect치ngulo_9" data-name="Rect치ngulo 9" width="674.567" height="165.606" fill="none"/>
    </clipPath>
  </defs>
  <g id="Grupo_6" data-name="Grupo 6" clip-path="url(#clip-path)">
    <path id="Trazado_1" data-name="Trazado 1" d="M112.5,138.267c-.979,10.254-6.58,19.244-16.638,25.362-4.359,2.655-9.158,2.392-13.77.648a31.481,31.481,0,0,1-7.975-4.073c-13.395-10.235-27.892-17.526-45.145-18.172-1.937-.074-3.872-.976-5.759-1.636C12.253,136.574,5.746,128.8,5.58,119.414,5.429,110.9,11.9,102.009,22.051,98.3,32.933,94.322,42.69,89.76,50.7,80.385c7.226-8.453,18.122-13.035,29.9-9.218,12.96,4.2,20.835,13.13,22.575,27.141,1.2,9.67,2.958,19.272,7.361,28.154,1.6,3.221,1.793,6.739,1.96,11.805" fill="#e44200" fill-rule="evenodd"/>
    <path id="Trazado_2" data-name="Trazado 2" d="M56.014,32.74C55.549,21.307,57.8,11.36,67.619,4.667c9.025-6.148,18.165-5.774,27.943.988,6.729,4.653,9.72,13.276,7.157,22.875-3.861,14.451-12.7,24.81-26.886,30.086-10.285,3.826-15.678.751-18.186-9.879a57.371,57.371,0,0,1-1.633-16" fill="#e44200" fill-rule="evenodd"/>
    <path id="Trazado_3" data-name="Trazado 3" d="M19.989,29.222c19.674.021,30.09,14.949,25.5,33.976a36.45,36.45,0,0,1-16.8,23.042c-4.041,2.482-8.256,3.184-12.7.424C3.763,79.064-3.667,55.833,1.852,42.618,5.7,33.386,12.8,29.468,19.989,29.222" fill="#e44200" fill-rule="evenodd"/>
    <path id="Trazado_4" data-name="Trazado 4" d="M103.828,61.668c.232-11.5,1.542-21.668,10.133-29.037,6.012-5.158,12.637-9.912,20.979-5.984,8.189,3.854,11.118,11.368,10.483,19.976-.875,11.86-6.034,21.6-16.295,28.07-6.189,3.9-12.957,5.789-19.905,2.075-6.65-3.559-4.805-10.335-5.395-15.1" fill="#e44200" fill-rule="evenodd"/>
    <path id="Trazado_5" data-name="Trazado 5" d="M116.258,113.137c0-15.943,15.871-30.006,31.676-27.816,7.843,1.085,11.992,6.811,14.716,13.528,2.467,6.065,1.294,11.894-3.216,16.667a45.635,45.635,0,0,1-22.843,13.591c-11.831,2.821-20.334-3.853-20.333-15.97" fill="#e44200" fill-rule="evenodd"/>
    <path id="Trazado_6" data-name="Trazado 6" d="M507.515,157.753,496.161,71.691l-10.672,33.291-10.054-6.034-7.381,4.427H175.938V97.032H466.3l9.137-5.481,6.457,3.877,16.86-52.595,9.564,72.489,5.959-34.969,13,17.111,12.713-9.247,4.627,9.918H674.567v6.34H540.579l-3.079-6.6-11.513,8.372-7.914-10.418Z" fill="#e44200"/>
    <path id="Trazado_7" data-name="Trazado 7" d="M230.5,47.927a40.632,40.632,0,0,1-3.594,17.408,30.483,30.483,0,0,1-9.079,11.8,24.938,24.938,0,0,1-9.041,4.3,49,49,0,0,1-11.652,1.216h-19.86V13.062H197.7a43.661,43.661,0,0,1,11.879,1.425,24.839,24.839,0,0,1,8.4,4.043,29.74,29.74,0,0,1,9.173,11.847,42.537,42.537,0,0,1,3.348,17.55m-15.018-.141a30.665,30.665,0,0,0-2.024-11.754,16.06,16.06,0,0,0-6.412-7.641,14.551,14.551,0,0,0-4.559-1.846,36.857,36.857,0,0,0-7.017-.491H191.8V69.612h3.67a35.528,35.528,0,0,0,7.6-.585A14.694,14.694,0,0,0,207.8,66.9a16.268,16.268,0,0,0,5.826-7.5,31.8,31.8,0,0,0,1.854-11.614" fill="#2e2e2d"/>
    <path id="Trazado_8" data-name="Trazado 8" d="M271.623,46.2h-1.208a10.129,10.129,0,0,0-2.793-.561q-1.926-.186-3.209-.186a25.223,25.223,0,0,0-5.133.467,24.735,24.735,0,0,0-4.794,1.589V82.652H240.83V30.168h13.656v7.711q4.492-4.767,7.813-6.332a14.48,14.48,0,0,1,6.116-1.566c.477,0,1.019.016,1.622.047s1.133.078,1.586.14Z" fill="#2e2e2d"/>
    <path id="Trazado_9" data-name="Trazado 9" d="M381.57,13.062,361.029,82.651H344.762L324.221,13.062h15.262L353.1,61.913l13.615-48.851Z" fill="#2e2e2d"/>
    <path id="Trazado_10" data-name="Trazado 10" d="M428.966,59.517H397.794q.3,6.17,3.8,9.441T411.9,72.229a19.318,19.318,0,0,0,8.36-1.916,24.958,24.958,0,0,0,6.393-4.112h1.513V79.707a43.737,43.737,0,0,1-8.7,3.318,37.073,37.073,0,0,1-9.041,1.028q-12.787,0-19.6-7.1t-6.809-20.237q0-12.992,6.45-20.587t17.684-7.594q10.367,0,15.586,6.473t5.221,18.624Zm-13.543-9.861q-.114-5.28-2.118-7.945t-6.242-2.664a8.778,8.778,0,0,0-6.469,2.524q-2.535,2.523-2.837,8.085Z" fill="#2e2e2d"/>
    <path id="Trazado_11" data-name="Trazado 11" d="M463.956,82.189a32.207,32.207,0,0,1-4.653,1.095,38.777,38.777,0,0,1-6.015.4q-7.944,0-11.822-3.973t-3.877-13.6V41.571h-5.6v-11.4h5.6v-15h13.656v15h12.711v11.4H451.245V60.2q0,2.763.038,4.821a11.975,11.975,0,0,0,.6,3.7,4.973,4.973,0,0,0,1.866,2.6,6.667,6.667,0,0,0,3.9.959,9.441,9.441,0,0,0,2.772-.561,10.149,10.149,0,0,0,2.4-1.028h1.132Z" fill="#2e2e2d"/>
    <text id="HV" transform="translate(542.684 82.651)" fill="#e44200" font-size="77.475" font-family="Verdana-Bold, Verdana" font-weight="700"><tspan x="0" y="0">HV</tspan></text>
    <path id="Trazado_12" data-name="Trazado 12" d="M281.553,77.343a7.927,7.927,0,1,1-7.927-7.927,7.928,7.928,0,0,1,7.927,7.927" fill="#2e2e2d" fill-rule="evenodd"/>
    <path id="Trazado_13" data-name="Trazado 13" d="M194.921,134.953h-5.054v-8.634H182.4v8.634h-5.054v-19.6H182.4v7.173h7.462v-7.173h5.054Z" fill="#2e2e2d"/>
    <path id="Trazado_14" data-name="Trazado 14" d="M214.148,127.57a7.707,7.707,0,0,1-2.126,5.744,9.532,9.532,0,0,1-11.937,0,8.832,8.832,0,0,1,.013-11.508,9.535,9.535,0,0,1,11.937.012,7.761,7.761,0,0,1,2.113,5.752m-5.831,3.593a3.791,3.791,0,0,0,.691-1.362,8.316,8.316,0,0,0,.23-2.2,8.612,8.612,0,0,0-.236-2.186,3.843,3.843,0,0,0-.659-1.408,2.306,2.306,0,0,0-1.013-.763,3.59,3.59,0,0,0-1.277-.223,3.738,3.738,0,0,0-1.217.183,2.471,2.471,0,0,0-1.02.737,3.791,3.791,0,0,0-.691,1.409,8.316,8.316,0,0,0-.256,2.251,8.678,8.678,0,0,0,.223,2.1,3.691,3.691,0,0,0,.658,1.428,2.492,2.492,0,0,0,1.007.75,3.541,3.541,0,0,0,1.336.237,3.5,3.5,0,0,0,1.23-.217,2.254,2.254,0,0,0,.994-.73" fill="#2e2e2d"/>
    <path id="Trazado_15" data-name="Trazado 15" d="M229.768,130.267a4.285,4.285,0,0,1-2.053,3.692,9.848,9.848,0,0,1-5.62,1.4,16.019,16.019,0,0,1-3.58-.369,13.689,13.689,0,0,1-2.579-.816v-3.895h.434c.237.167.511.348.823.546a8.366,8.366,0,0,0,1.322.638,11.021,11.021,0,0,0,1.672.52,8.86,8.86,0,0,0,2,.217,5.2,5.2,0,0,0,2.066-.309.985.985,0,0,0,.672-.915.852.852,0,0,0-.4-.783,5.171,5.171,0,0,0-1.5-.467c-.35-.079-.827-.165-1.428-.257a15.186,15.186,0,0,1-1.638-.336,5.78,5.78,0,0,1-2.987-1.639,4.048,4.048,0,0,1-.975-2.769,4.2,4.2,0,0,1,2.021-3.547,9.483,9.483,0,0,1,5.521-1.415,14.63,14.63,0,0,1,3.178.336,12.951,12.951,0,0,1,2.376.717v3.737h-.409a9.646,9.646,0,0,0-2.4-1.178,8.523,8.523,0,0,0-2.73-.454,5.158,5.158,0,0,0-1.928.317q-.783.315-.783.894a.954.954,0,0,0,.355.8,4.834,4.834,0,0,0,1.672.553q.723.144,1.559.283t1.678.348a5.281,5.281,0,0,1,2.764,1.534,3.875,3.875,0,0,1,.9,2.612" fill="#2e2e2d"/>
    <path id="Trazado_16" data-name="Trazado 16" d="M247.718,127.359a9.492,9.492,0,0,1-.559,3.33,7.32,7.32,0,0,1-1.466,2.474,6.4,6.4,0,0,1-2.142,1.553,6.294,6.294,0,0,1-2.564.526,7.417,7.417,0,0,1-2.142-.269,10.275,10.275,0,0,1-1.8-.757v6.159h-4.751v-20.2h4.751v1.539a11.511,11.511,0,0,1,2.228-1.408,6.045,6.045,0,0,1,2.622-.539,5.07,5.07,0,0,1,4.292,2.026,9.042,9.042,0,0,1,1.532,5.567m-4.883.1a5.239,5.239,0,0,0-.735-3.127,2.73,2.73,0,0,0-2.325-.973,4.972,4.972,0,0,0-1.378.205,5.737,5.737,0,0,0-1.353.584v7.424a3.81,3.81,0,0,0,1.011.237q.539.053,1.064.052a3.444,3.444,0,0,0,2.8-1.1,5.06,5.06,0,0,0,.919-3.306" fill="#2e2e2d"/>
    <path id="Trazado_17" data-name="Trazado 17" d="M255.4,118.067h-5.014v-3.593H255.4Zm-.132,16.886H250.52V120.174h4.751Z" fill="#2e2e2d"/>
    <path id="Trazado_18" data-name="Trazado 18" d="M268.562,134.823a13.638,13.638,0,0,1-1.619.308,16.629,16.629,0,0,1-2.092.111,6.347,6.347,0,0,1-4.113-1.118q-1.35-1.119-1.349-3.83v-6.909h-1.948v-3.211h1.948v-4.225h4.751v4.225h4.422v3.211H264.14v5.246q0,.777.013,1.357a2.8,2.8,0,0,0,.21,1.041,1.45,1.45,0,0,0,.649.731,2.744,2.744,0,0,0,1.359.271,5.44,5.44,0,0,0,1.8-.447h.393Z" fill="#2e2e2d"/>
    <path id="Trazado_19" data-name="Trazado 19" d="M279.72,133.387q-.381.29-.947.7a7.042,7.042,0,0,1-1.066.645,6.649,6.649,0,0,1-1.448.466,8.248,8.248,0,0,1-1.645.152,5.022,5.022,0,0,1-3.527-1.3,4.315,4.315,0,0,1-1.422-3.33,4.483,4.483,0,0,1,.724-2.645,4.858,4.858,0,0,1,2.053-1.619,11.621,11.621,0,0,1,3.264-.842q1.949-.25,4.04-.369v-.079a1.7,1.7,0,0,0-1-1.69A7.223,7.223,0,0,0,275.8,123a8.424,8.424,0,0,0-2.5.415q-1.33.414-1.909.638h-.434v-3.567q.75-.2,2.441-.466a21.478,21.478,0,0,1,3.389-.271q4.041,0,5.837,1.244a4.413,4.413,0,0,1,1.8,3.9v10.055h-4.7Zm0-2.3v-3.069q-.96.078-2.079.216a9.9,9.9,0,0,0-1.7.322,2.335,2.335,0,0,0-1.086.649,1.633,1.633,0,0,0-.375,1.121,2.934,2.934,0,0,0,.079.748,1.121,1.121,0,0,0,.395.551,1.919,1.919,0,0,0,.724.387,5.043,5.043,0,0,0,1.316.125,3.908,3.908,0,0,0,1.441-.288,4.533,4.533,0,0,0,1.283-.762" fill="#2e2e2d"/>
    <rect id="Rect치ngulo_8" data-name="Rect치ngulo 8" width="4.751" height="20.479" transform="translate(288.155 114.474)" fill="#2e2e2d"/>
    <path id="Trazado_20" data-name="Trazado 20" d="M323.37,115.356l-7.146,19.6h-5.659l-7.147-19.6h5.31l4.736,13.757,4.737-13.757Z" fill="#2e2e2d"/>
    <path id="Trazado_21" data-name="Trazado 21" d="M339.86,128.438H329.015a3.413,3.413,0,0,0,1.323,2.659,5.883,5.883,0,0,0,3.586.921,8.039,8.039,0,0,0,2.909-.54,9.057,9.057,0,0,0,2.224-1.158h.527v3.8a17.6,17.6,0,0,1-3.028.934,15.791,15.791,0,0,1-3.145.289q-4.449,0-6.817-2a7.044,7.044,0,0,1-2.369-5.7,7.634,7.634,0,0,1,2.243-5.8,8.556,8.556,0,0,1,6.153-2.138,7.347,7.347,0,0,1,5.423,1.822,7.116,7.116,0,0,1,1.816,5.245Zm-4.712-2.777a3.316,3.316,0,0,0-.737-2.237,2.834,2.834,0,0,0-2.171-.75,3.472,3.472,0,0,0-2.251.711,3.028,3.028,0,0,0-.987,2.276Z" fill="#2e2e2d"/>
    <path id="Trazado_22" data-name="Trazado 22" d="M352.032,134.823a13.62,13.62,0,0,1-1.618.308,16.646,16.646,0,0,1-2.093.111,6.347,6.347,0,0,1-4.113-1.118q-1.349-1.119-1.349-3.83v-6.909h-1.948v-3.211h1.948v-4.225h4.751v4.225h4.422v3.211H347.61v5.246q0,.777.014,1.357a2.762,2.762,0,0,0,.21,1.041,1.45,1.45,0,0,0,.649.731,2.74,2.74,0,0,0,1.358.271,5.44,5.44,0,0,0,1.8-.447h.393Z" fill="#2e2e2d"/>
    <path id="Trazado_23" data-name="Trazado 23" d="M368.8,128.438H357.953a3.41,3.41,0,0,0,1.323,2.659,5.885,5.885,0,0,0,3.586.921,8.045,8.045,0,0,0,2.91-.54,9.067,9.067,0,0,0,2.223-1.158h.527v3.8a17.614,17.614,0,0,1-3.027.934,15.8,15.8,0,0,1-3.145.289q-4.449,0-6.818-2a7.047,7.047,0,0,1-2.369-5.7,7.631,7.631,0,0,1,2.244-5.8,8.554,8.554,0,0,1,6.153-2.138,7.347,7.347,0,0,1,5.423,1.822,7.124,7.124,0,0,1,1.815,5.245Zm-4.711-2.777a3.316,3.316,0,0,0-.737-2.237,2.836,2.836,0,0,0-2.172-.75,3.471,3.471,0,0,0-2.25.711,3.032,3.032,0,0,0-.988,2.276Z" fill="#2e2e2d"/>
    <path id="Trazado_24" data-name="Trazado 24" d="M382.233,124.687h-.42a4.24,4.24,0,0,0-.972-.158c-.447-.034-.819-.052-1.116-.052a10.847,10.847,0,0,0-1.786.131,10.138,10.138,0,0,0-1.668.448v9.9H371.52v-14.78h4.751v2.171a9.9,9.9,0,0,1,2.718-1.783,6.007,6.007,0,0,1,2.128-.44q.249,0,.564.012c.211.009.395.023.552.04Z" fill="#2e2e2d"/>
    <path id="Trazado_25" data-name="Trazado 25" d="M389.181,118.067h-5.015v-3.593h5.015Zm-.132,16.886H384.3V120.174h4.751Z" fill="#2e2e2d"/>
    <path id="Trazado_26" data-name="Trazado 26" d="M407.737,134.953h-4.751v-7.331a17.135,17.135,0,0,0-.093-1.783,3.761,3.761,0,0,0-.315-1.31,1.587,1.587,0,0,0-.77-.71,3.6,3.6,0,0,0-1.415-.223,4.321,4.321,0,0,0-1.309.21,7.009,7.009,0,0,0-1.442.671v10.476h-4.751V120.174h4.751v1.632a12,12,0,0,1,2.425-1.514,6.193,6.193,0,0,1,2.583-.527,4.954,4.954,0,0,1,3.739,1.4,5.789,5.789,0,0,1,1.348,4.173Z" fill="#2e2e2d"/>
    <path id="Trazado_27" data-name="Trazado 27" d="M420.423,133.387q-.381.29-.947.7a7,7,0,0,1-1.067.645,6.641,6.641,0,0,1-1.447.466,8.251,8.251,0,0,1-1.646.152,5.024,5.024,0,0,1-3.527-1.3,4.318,4.318,0,0,1-1.421-3.33,4.483,4.483,0,0,1,.724-2.645,4.855,4.855,0,0,1,2.054-1.619,11.6,11.6,0,0,1,3.263-.842q1.947-.25,4.04-.369v-.079a1.7,1.7,0,0,0-1-1.69A7.22,7.22,0,0,0,416.5,123a8.424,8.424,0,0,0-2.5.415q-1.33.414-1.909.638h-.434v-3.567q.75-.2,2.442-.466a21.456,21.456,0,0,1,3.388-.271q4.041,0,5.837,1.244a4.413,4.413,0,0,1,1.8,3.9v10.055h-4.7Zm0-2.3v-3.069q-.961.078-2.079.216a9.9,9.9,0,0,0-1.7.322,2.331,2.331,0,0,0-1.085.649,1.634,1.634,0,0,0-.376,1.121,2.889,2.889,0,0,0,.079.748,1.115,1.115,0,0,0,.395.551,1.919,1.919,0,0,0,.724.387,5.037,5.037,0,0,0,1.316.125,3.908,3.908,0,0,0,1.441-.288,4.533,4.533,0,0,0,1.283-.762" fill="#2e2e2d"/>
    <path id="Trazado_28" data-name="Trazado 28" d="M439.57,124.687h-.42a4.24,4.24,0,0,0-.972-.158c-.447-.034-.819-.052-1.116-.052a10.847,10.847,0,0,0-1.786.131,10.112,10.112,0,0,0-1.668.448v9.9h-4.751v-14.78h4.751v2.171a9.9,9.9,0,0,1,2.718-1.783,6.007,6.007,0,0,1,2.128-.44q.249,0,.564.012c.211.009.395.023.552.04Z" fill="#2e2e2d"/>
    <path id="Trazado_29" data-name="Trazado 29" d="M446.517,118.067H441.5v-3.593h5.015Zm-.132,16.886h-4.751V120.174h4.751Z" fill="#2e2e2d"/>
    <path id="Trazado_30" data-name="Trazado 30" d="M465.336,127.57a7.706,7.706,0,0,1-2.125,5.744,9.532,9.532,0,0,1-11.937,0,8.832,8.832,0,0,1,.013-11.508,9.535,9.535,0,0,1,11.937.012,7.761,7.761,0,0,1,2.112,5.752m-5.829,3.593a3.823,3.823,0,0,0,.691-1.362,8.322,8.322,0,0,0,.229-2.2,8.568,8.568,0,0,0-.236-2.186,3.827,3.827,0,0,0-.659-1.408,2.312,2.312,0,0,0-1.013-.763,3.59,3.59,0,0,0-1.277-.223,3.728,3.728,0,0,0-1.216.183,2.461,2.461,0,0,0-1.021.737,3.776,3.776,0,0,0-.69,1.409,8.273,8.273,0,0,0-.257,2.251,8.677,8.677,0,0,0,.223,2.1,3.691,3.691,0,0,0,.659,1.428,2.479,2.479,0,0,0,1.007.75,3.74,3.74,0,0,0,2.566.02,2.26,2.26,0,0,0,.994-.73" fill="#2e2e2d"/>
  </g>
</svg>
