<?xml version="1.0" encoding="UTF-8" standalone="no"?> <svg xmlns:inkscape="http://www.inkscape.org/namespaces/inkscape" xmlns:sodipodi="http://sodipodi.sourceforge.net/DTD/sodipodi-0.dtd" xmlns="http://www.w3.org/2000/svg" xmlns:svg="http://www.w3.org/2000/svg" id="Capa_1" data-name="Capa 1" viewBox="0 0 900 650" version="1.1" sodipodi:docname="Oncopet Logo.svg" width="900" height="650" inkscape:version="1.3.2 (091e20e, 2023-11-25, custom)"><defs id="defs1"><style id="style1"> .cls-1 { fill: #f5bfdb; } .cls-1, .cls-2 { stroke-width: 0px; } .cls-2 { fill: #722f85; } </style></defs><g id="g13" transform="translate(-125,-49.005548)"><g id="g4"><path class="cls-2" d="m 540.99,240.63 c 18.48,-1.43 31.69,-25.5 29.5,-53.76 -2.19,-28.26 -18.94,-50.01 -37.42,-48.58 -18.48,1.43 -31.69,25.5 -29.5,53.76 2.19,28.26 18.94,50.01 37.42,48.58 z" id="path1"></path><path class="cls-2" d="m 602.93,193.09 c 21.72,4.55 44.96,-18.69 51.92,-51.9 6.96,-33.21 -5,-63.83 -26.72,-68.38 -21.72,-4.55 -44.96,18.69 -51.92,51.9 -6.96,33.21 5,63.82 26.72,68.38 z" id="path2"></path><ellipse class="cls-2" cx="701.28003" cy="166.5" rx="61.439999" ry="40.169998" transform="rotate(-67.59,701.31251,166.4936)" id="ellipse2"></ellipse><ellipse class="cls-2" cx="742.09998" cy="260.69" rx="46.27" ry="30.26" transform="rotate(-45,742.10189,260.69133)" id="ellipse3"></ellipse><path class="cls-2" d="m 665.12,334.82 c -0.24,22.47 -1.04,45.42 -2,68.03 -0.22,5.27 -2.2,18.36 -2.24,19.25 -8.98,-2.42 -17.47,-8.34 -26.14,-13.47 -12.34,-7.86 -24.8,-16.81 -39.43,-20.37 -6.29,-1.69 -15.32,-1.29 -21.3,0.75 -9.82,3.23 -14.75,6.23 -23.55,8.77 -8.39,2.55 -17.8,4.13 -26.94,5.08 -5.48,0.39 -12.7,1.27 -15.14,-4.23 -7.04,-19.03 9.45,-59.62 16.59,-79.06 0,0 -1.58,-1 -1.58,-1 -8.69,9.75 -16.26,20.39 -22.85,31.68 -9.2,16.56 -18.47,35.18 -14.43,55.01 5.13,20.76 24.59,26.21 43.6,25.43 13.56,-0.05 28.34,-1.79 41.67,-5.63 4.44,-1.23 8.67,-2.58 11.13,-2.96 2.24,-0.27 2,-0.1 3.81,0.54 8.02,3.51 18.59,12.39 26.05,18.04 14.33,10.44 30.41,22.27 49.73,23.92 31.65,1.47 42,-27.06 43.5,-52.98 0.72,-13.1 1.28,-26.06 1.37,-39.35 0.03,-8.02 -0.42,-16.78 -1.42,-25.85 -13.47,-3.89 -26.96,-7.73 -40.45,-11.58 z" id="path3"></path><path class="cls-2" d="m 794.79,320.6 c -31.58,-1.28 -63.16,-4.51 -94.46,-9.36 -5.99,-24.17 -16.41,-47.41 -32.74,-62.18 -3.81,-3.44 -8.38,-6.14 -12.85,-8.66 -8.22,-4.66 -16.89,-8.94 -26.52,-12.05 -14.74,-4.99 -33.39,-5.76 -48.18,2.44 -11.67,6.24 -21.4,18.27 -22.58,32.43 -2.07,19.95 13.17,35.97 29.61,43.23 8.81,4.04 17.61,6.71 26.98,8.37 8.5,1.71 16.62,4.52 24.9,6.87 8.72,2.54 17.44,5.05 26.15,7.54 13.49,3.85 26.98,7.69 40.45,11.58 10.65,3.08 21.29,6.18 31.92,9.41 16.39,5.01 32.68,10.03 49.1,15.78 0,0 0.05,-0.27 0.13,-0.72 -4.19,-6.17 -10.58,-16.44 -13.96,-26.22 0,0 12.91,-7.2 22.03,-18.46 z M 644.34,300.86 c -15.48,-3.19 -31.36,-7.76 -44.23,-17.06 -3.91,-2.97 -7.01,-5.95 -9.18,-9.86 -1.19,-2.09 -1.13,-4.84 -1.07,-6.76 0.24,-7.48 9.56,-20.53 28.21,-16.8 8.45,1.69 22.35,8.15 29.73,13.35 12.17,9.91 15.52,25.73 16.75,41.27 -6.75,-1.31 -13.48,-2.68 -20.19,-4.13 z" id="path4"></path></g><g id="g12"><path class="cls-2" d="m 290.15,530.82 c 16.58,16.58 24.87,36.58 24.87,60.01 0,23.43 -8.29,43.44 -24.87,60.01 -16.65,16.58 -36.69,24.86 -60.13,24.86 -23.44,0 -43.44,-8.29 -60.01,-24.86 -16.58,-16.58 -24.86,-36.58 -24.86,-60.01 0,-23.43 8.29,-43.44 24.86,-60.01 16.58,-16.58 36.58,-24.86 60.01,-24.86 23.43,0 43.47,8.29 60.13,24.86 z m -105.34,14.69 c -12.51,12.51 -18.76,27.62 -18.76,45.32 0,17.7 6.25,32.81 18.76,45.32 12.51,12.43 27.58,18.65 45.21,18.65 17.63,0 32.81,-6.22 45.32,-18.65 12.51,-12.51 18.76,-27.61 18.76,-45.32 0,-17.71 -6.25,-32.81 -18.76,-45.32 -12.51,-12.51 -27.62,-18.76 -45.32,-18.76 -17.7,0 -32.7,6.25 -45.21,18.76 z" id="path5"></path><path class="cls-2" d="m 352.68,665.47 c 0,2.86 -1.02,5.28 -3.05,7.23 -2.03,2.03 -4.45,3.05 -7.23,3.05 h -0.34 c -2.79,0 -5.2,-1.02 -7.23,-3.05 -2.03,-1.96 -3.05,-4.37 -3.05,-7.23 v -61.82 c 0,-14.16 5.01,-26.26 15.03,-36.28 10.02,-10.02 22.11,-15.03 36.28,-15.03 14.17,0 26.14,5.01 36.17,15.03 10.02,10.02 15.03,22.12 15.03,36.28 v 61.82 c 0,2.86 -1.02,5.28 -3.05,7.23 -1.96,2.03 -4.37,3.05 -7.23,3.05 h -0.23 c -2.86,0 -5.31,-1.02 -7.35,-3.05 -2.03,-1.96 -3.05,-4.37 -3.05,-7.23 v -61.82 c 0,-8.36 -2.94,-15.52 -8.82,-21.47 -5.95,-5.95 -13.11,-8.93 -21.47,-8.93 -8.36,0 -15.64,2.98 -21.59,8.93 -5.88,5.95 -8.82,13.11 -8.82,21.47 z" id="path6"></path><path class="cls-2" d="m 530.38,555.28 c 4.82,1.51 7.23,4.79 7.23,9.83 v 0.56 c 0,3.47 -1.39,6.22 -4.18,8.25 -2.86,2.11 -5.95,2.64 -9.27,1.58 -3.99,-1.36 -8.14,-2.03 -12.43,-2.03 -11.3,0 -20.95,3.99 -28.93,11.98 -7.91,7.99 -11.87,17.63 -11.87,28.93 0,11.3 3.96,20.83 11.87,28.82 7.99,7.99 17.63,11.98 28.93,11.98 4.29,0 8.44,-0.64 12.43,-1.92 3.31,-1.05 6.4,-0.56 9.27,1.47 2.79,2.03 4.18,4.82 4.18,8.36 0,4.97 -2.41,8.25 -7.23,9.83 -6.03,1.88 -12.25,2.83 -18.65,2.83 -17.03,0 -31.57,-6.03 -43.63,-18.08 -12.06,-12.05 -18.08,-26.6 -18.08,-43.63 0,-17.03 6.03,-31.57 18.08,-43.63 12.05,-12.05 26.6,-18.08 43.63,-18.08 6.4,0 12.62,0.98 18.65,2.94 z" id="path7"></path><path class="cls-2" d="m 611.68,552.34 c 17.03,0 31.57,6.03 43.63,18.08 12.06,12.06 18.08,26.6 18.08,43.63 0,17.03 -6.03,31.57 -18.08,43.63 -12.06,12.06 -26.6,18.08 -43.63,18.08 -17.03,0 -31.57,-6.03 -43.63,-18.08 -12.06,-12.05 -18.08,-26.6 -18.08,-43.63 0,-17.03 6.03,-31.57 18.08,-43.63 12.05,-12.05 26.6,-18.08 43.63,-18.08 z m 0,21.13 c -11.3,0 -20.95,3.99 -28.93,11.98 -7.91,7.99 -11.87,17.63 -11.87,28.93 0,11.3 3.96,20.83 11.87,28.82 7.99,7.99 17.63,11.98 28.93,11.98 11.3,0 20.91,-3.99 28.82,-11.98 7.99,-7.99 11.98,-17.59 11.98,-28.82 0,-11.23 -3.99,-20.95 -11.98,-28.93 -7.91,-7.99 -17.52,-11.98 -28.82,-11.98 z" id="path8"></path><path class="cls-1" d="m 963.95,506 c 2.79,0 5.2,0.98 7.23,2.94 2.03,2.03 3.05,4.48 3.05,7.35 v 67.22 h 20.34 c 2.79,0 5.2,1.02 7.23,3.05 2.03,2.03 3.05,4.48 3.05,7.35 v 0.23 c 0,2.86 -1.02,5.27 -3.05,7.23 -2.03,2.03 -4.45,3.05 -7.23,3.05 h -20.34 v 39.25 c 0,3.09 1.09,5.73 3.28,7.91 2.18,2.19 4.86,3.28 8.02,3.28 h 9.04 c 2.79,0 5.2,1.02 7.23,3.05 2.03,2.03 3.05,4.48 3.05,7.35 v 0.23 c 0,2.86 -1.02,5.28 -3.05,7.23 -2.03,2.03 -4.45,3.05 -7.23,3.05 h -9.04 c -8.89,0 -16.5,-3.13 -22.83,-9.38 -6.26,-6.33 -9.38,-13.9 -9.38,-22.72 V 516.3 c 0,-2.86 1.02,-5.31 3.05,-7.35 2.03,-1.96 4.44,-2.94 7.23,-2.94 h 0.34 z" id="path9"></path><g id="g10"><path class="cls-1" d="m 786.89,522.5 c -11,-11 -24.34,-16.5 -40.01,-16.5 -15.67,0 -28.93,5.5 -40.01,16.5 -11.08,11.08 -16.61,24.45 -16.61,40.12 v 102.85 c 0,2.86 1.02,5.28 3.05,7.23 2.03,2.03 4.45,3.05 7.23,3.05 h 0.34 c 2.79,0 5.2,-1.02 7.23,-3.05 2.03,-1.96 3.05,-4.37 3.05,-7.23 V 635.8 l -0.12,0.04 c 0.14,-0.21 -0.14,-106.99 -0.14,-106.99 l 16.42,21.53 c 0,0 20.42,-7.66 28.08,5.1 4.54,7.57 10.88,8.85 15.29,8.65 3.15,-0.15 5.65,2.56 5.35,5.69 -0.71,7.34 -4.99,14.67 -24,13.94 0,0 -12.21,24.47 10.18,33.5 9.23,-2.5 17.46,-7.37 24.67,-14.63 11.08,-11.08 16.61,-24.41 16.61,-40.01 0,-15.6 -5.54,-29.05 -16.61,-40.12 z m -57.01,22.77 2.22,-15.8 8.86,14.4 c 0,0 -6.65,-1.11 -11.08,1.4 z" id="path10"></path><circle class="cls-2" cx="745.39001" cy="562.71002" r="2.22" id="circle10"></circle></g><g id="g11"><path class="cls-1" d="m 934.53,625.12 c -2.11,-2.94 -4.94,-4.41 -8.48,-4.41 -4.97,0 -8.29,2.34 -9.95,7.01 -2.79,8.06 -7.65,14.62 -14.58,19.67 -7.16,5.2 -15.14,7.8 -23.96,7.8 -13.26,0 -23.96,-5.2 -32.1,-15.6 6.33,-2.86 20.15,-9.12 41.48,-18.76 17.18,-7.76 31.04,-14.02 41.59,-18.76 2.64,-1.2 4.45,-3.13 5.42,-5.76 0.98,-2.71 0.87,-5.35 -0.34,-7.91 -4.9,-10.77 -12.36,-19.44 -22.38,-25.99 -10.17,-6.71 -21.4,-10.06 -33.68,-10.06 -17.03,0 -31.57,6.03 -43.63,18.08 -12.06,12.06 -18.08,26.6 -18.08,43.63 0,17.03 6.03,31.57 18.08,43.63 12.05,12.06 26.6,18.08 43.63,18.08 13.26,0 25.28,-3.88 36.05,-11.64 10.55,-7.53 17.93,-17.41 22.15,-29.61 1.2,-3.39 0.79,-6.52 -1.24,-9.38 z M 908.7,587.99 c 0,0 0.04,0.04 0.05,0.06 l -0.1,0.04 0.04,-0.11 z m -37.36,-20.08 1.33,2.11 -2.67,2.67 h -3.15 l 4.48,-4.77 z m -34.12,52.47 c -0.01,-0.07 -0.01,-0.14 -0.02,-0.21 0.04,0.07 0.08,0.12 0.11,0.17 l -0.08,0.04 z m 15.43,-37.92 C 859.26,571.5 871.04,574 871.04,574 l 5.01,-5.01 c 0,0 1.83,7.19 2.78,20.06 0.3,4.04 1.62,7.85 3.74,11.14 l -21.83,9.87 c 0.08,-0.91 0.16,-1.81 0.27,-2.68 0.61,-5.24 -3.38,-9.98 -8.65,-10.03 -0.05,0 -0.11,0 -0.16,0 -7.05,0 -7.05,-7.05 -7.05,-7.05 3.34,-3.34 5.57,-4.66 7.49,-7.84 z" id="path11"></path><circle class="cls-2" cx="858.73999" cy="585.53998" r="1.08" id="circle11"></circle></g><circle class="cls-2" cx="230.08" cy="590.84003" r="39.439999" id="circle12"></circle></g></g></svg> 