<?xml version="1.0" encoding="UTF-8"?>
<svg id="Layer_2" data-name="Layer 2" xmlns="http://www.w3.org/2000/svg" viewBox="0 0 135 40">
  <defs>
    <style>
      .cls-1 {
        fill: #4285f4;
      }

      .cls-1, .cls-2, .cls-3, .cls-4, .cls-5, .cls-6, .cls-7 {
        stroke-width: 0px;
      }

      .cls-2 {
        fill: #000;
      }

      .cls-3 {
        fill: #a6a6a6;
      }

      .cls-4 {
        fill: #fbbc04;
      }

      .cls-5 {
        fill: #34a853;
      }

      .cls-6 {
        fill: #fff;
      }

      .cls-7 {
        fill: #ea4335;
      }
    </style>
  </defs>
  <g id="artwork">
    <g>
      <rect class="cls-2" width="135" height="40" rx="5" ry="5"/>
      <path class="cls-3" d="M130,.8c2.32,0,4.2,1.88,4.2,4.2v30c0,2.32-1.88,4.2-4.2,4.2H5c-2.32,0-4.2-1.88-4.2-4.2V5C.8,2.68,2.68.8,5,.8h125M130,0H5C2.25,0,0,2.25,0,5v30c0,2.75,2.25,5,5,5h125c2.75,0,5-2.25,5-5V5C135,2.25,132.75,0,130,0h0Z"/>
      <path class="cls-6" d="M68.14,21.75c-2.35,0-4.27,1.79-4.27,4.25s1.92,4.25,4.27,4.25,4.27-1.8,4.27-4.25-1.92-4.25-4.27-4.25ZM68.14,28.58c-1.29,0-2.4-1.06-2.4-2.58s1.11-2.58,2.4-2.58,2.4,1.05,2.4,2.58-1.11,2.58-2.4,2.58ZM58.82,21.75c-2.35,0-4.27,1.79-4.27,4.25s1.92,4.25,4.27,4.25,4.27-1.8,4.27-4.25-1.92-4.25-4.27-4.25ZM58.82,28.58c-1.29,0-2.4-1.06-2.4-2.58s1.11-2.58,2.4-2.58,2.4,1.05,2.4,2.58-1.11,2.58-2.4,2.58ZM47.74,23.06v1.8h4.32c-.13,1.02-.47,1.76-.98,2.27-.63.63-1.61,1.32-3.33,1.32-2.66,0-4.74-2.14-4.74-4.8s2.08-4.8,4.74-4.8c1.43,0,2.48.56,3.25,1.29l1.27-1.27c-1.08-1.03-2.51-1.82-4.53-1.82-3.64,0-6.7,2.96-6.7,6.61s3.06,6.61,6.7,6.61c1.97,0,3.45-.64,4.61-1.85,1.19-1.19,1.56-2.87,1.56-4.22,0-.42-.03-.81-.1-1.13h-6.07ZM93.05,24.46c-.35-.95-1.43-2.71-3.64-2.71s-4.01,1.72-4.01,4.25c0,2.38,1.8,4.25,4.22,4.25,1.95,0,3.08-1.19,3.54-1.88l-1.45-.97c-.48.71-1.14,1.18-2.09,1.18s-1.63-.44-2.06-1.29l5.69-2.35-.19-.48ZM87.25,25.88c-.05-1.64,1.27-2.48,2.22-2.48.74,0,1.37.37,1.58.9l-3.8,1.58ZM82.63,30h1.87v-12.5h-1.87v12.5ZM79.57,22.7h-.06c-.42-.5-1.22-.95-2.24-.95-2.13,0-4.08,1.87-4.08,4.27s1.95,4.24,4.08,4.24c1.02,0,1.82-.45,2.24-.97h.06v.61c0,1.63-.87,2.5-2.27,2.5-1.14,0-1.85-.82-2.14-1.51l-1.63.68c.47,1.13,1.71,2.51,3.77,2.51,2.19,0,4.04-1.29,4.04-4.43v-7.64h-1.77v.69ZM77.42,28.58c-1.29,0-2.37-1.08-2.37-2.56s1.08-2.59,2.37-2.59,2.27,1.1,2.27,2.59-1,2.56-2.27,2.56ZM101.81,17.5h-4.47v12.5h1.87v-4.74h2.61c2.07,0,4.1-1.5,4.1-3.88s-2.03-3.88-4.1-3.88ZM101.85,23.52h-2.65v-4.29h2.65c1.4,0,2.19,1.16,2.19,2.14s-.79,2.14-2.19,2.14ZM113.39,21.73c-1.35,0-2.75.6-3.33,1.91l1.66.69c.35-.69,1.01-.92,1.7-.92.96,0,1.95.58,1.96,1.61v.13c-.34-.19-1.06-.48-1.95-.48-1.79,0-3.6.98-3.6,2.81,0,1.67,1.46,2.75,3.1,2.75,1.25,0,1.95-.56,2.38-1.22h.06v.97h1.8v-4.79c0-2.22-1.66-3.46-3.8-3.46ZM113.16,28.58c-.61,0-1.46-.31-1.46-1.06,0-.96,1.06-1.33,1.98-1.33.82,0,1.21.18,1.7.42-.14,1.16-1.14,1.98-2.22,1.98ZM123.74,22l-2.14,5.42h-.06l-2.22-5.42h-2.01l3.33,7.58-1.9,4.21h1.95l5.13-11.79h-2.07ZM106.94,30h1.87v-12.5h-1.87v12.5Z"/>
      <g>
        <path class="cls-7" d="M20.72,19.42l-10.65,11.3s0,0,0,0c.33,1.23,1.45,2.13,2.78,2.13.53,0,1.03-.14,1.46-.4l.03-.02,11.98-6.91-5.61-6.11Z"/>
        <path class="cls-4" d="M31.49,17.5h-.01s-5.17-3.01-5.17-3.01l-5.83,5.19,5.85,5.85,5.15-2.97c.9-.49,1.51-1.44,1.51-2.53s-.6-2.04-1.5-2.52Z"/>
        <path class="cls-1" d="M10.07,9.28c-.06.24-.1.48-.1.74v19.97c0,.26.03.5.1.74l11.01-11.01-11.01-10.44Z"/>
        <path class="cls-5" d="M20.8,20l5.51-5.51-11.97-6.94c-.43-.26-.94-.41-1.49-.41-1.33,0-2.45.91-2.78,2.13,0,0,0,0,0,0l10.73,10.72Z"/>
      </g>
      <g>
        <path class="cls-6" d="M41.68,6.78h2.05c.5,0,.96.08,1.36.24.4.16.74.38,1.02.65s.5.61.65,1.01.23.82.23,1.29-.08.9-.23,1.29-.37.73-.65,1.01c-.28.28-.62.5-1.02.65s-.85.24-1.36.24h-2.05v-6.37ZM43.71,12.19c.72,0,1.27-.2,1.66-.59s.59-.94.59-1.64-.2-1.24-.59-1.63-.95-.59-1.66-.59h-1.02v4.45h1.02Z"/>
        <path class="cls-6" d="M48.74,7.74v1.75h2.59v.94h-2.59v1.75h2.87v.96h-3.88v-6.37h3.88v.96h-2.87Z"/>
        <path class="cls-6" d="M54.37,13.3c-.25,0-.5-.04-.74-.11s-.46-.19-.67-.33c-.2-.15-.38-.33-.54-.55-.15-.22-.27-.47-.36-.77l.96-.39c.04.17.1.32.18.47.08.15.18.27.29.38.12.11.25.19.39.25.15.06.31.09.49.09.15,0,.29-.02.43-.06.14-.04.26-.1.36-.17.1-.08.18-.17.24-.28.06-.11.09-.24.09-.39,0-.13-.02-.25-.07-.36s-.12-.2-.22-.29c-.1-.09-.23-.17-.4-.25s-.36-.16-.6-.24l-.4-.14c-.17-.06-.35-.14-.53-.24-.18-.1-.34-.22-.49-.36-.15-.14-.26-.3-.36-.49-.09-.19-.14-.41-.14-.67,0-.24.05-.46.15-.67.1-.21.24-.4.41-.56.18-.16.39-.29.64-.38.25-.09.52-.14.81-.14s.58.04.81.13.43.19.59.32c.16.13.29.27.39.43.1.16.17.3.22.44l-.91.38c-.03-.09-.07-.18-.13-.27-.06-.09-.13-.17-.22-.24s-.19-.13-.32-.18c-.12-.05-.26-.07-.42-.07-.14,0-.28.02-.4.06s-.23.09-.32.16c-.09.07-.17.15-.22.25s-.08.2-.08.31c0,.23.09.41.28.55.19.14.46.27.82.4l.4.14c.25.08.48.18.69.29.21.11.39.25.54.4s.27.34.36.55c.09.21.13.45.13.72,0,.33-.07.62-.2.85-.13.23-.3.43-.51.58s-.44.27-.69.34c-.25.07-.5.11-.75.11Z"/>
        <path class="cls-6" d="M62.85,12.15c-.3.36-.67.64-1.09.84s-.91.31-1.44.31c-.47,0-.91-.08-1.32-.25-.4-.17-.76-.4-1.05-.7-.3-.3-.53-.65-.7-1.05-.17-.4-.25-.84-.25-1.32s.08-.91.25-1.31c.17-.41.4-.76.7-1.06s.65-.53,1.05-.7c.4-.17.84-.25,1.32-.25s.93.09,1.33.27c.39.18.74.44,1.03.77l-.71.69c-.21-.25-.45-.45-.72-.58-.26-.13-.57-.2-.93-.2-.31,0-.61.06-.89.16-.28.11-.53.27-.73.47-.21.21-.37.45-.49.75-.12.29-.18.62-.18.98s.06.69.18.98c.12.29.29.54.49.75.21.2.45.36.73.47.28.11.58.16.89.16.38,0,.72-.08,1.01-.24.3-.16.56-.38.79-.65l.73.7Z"/>
        <path class="cls-6" d="M65.45,6.78h1.16l2.39,6.37h-1.11l-.58-1.64h-2.56l-.58,1.64h-1.11l2.39-6.37ZM66.97,10.6l-.67-1.88-.25-.75h-.05l-.25.75-.67,1.88h1.89Z"/>
        <path class="cls-6" d="M69.52,6.78h2.25c.29,0,.56.05.81.14s.47.23.65.4c.18.18.33.38.43.62s.16.5.16.78c0,.22-.04.43-.11.62s-.18.37-.31.53c-.13.16-.28.29-.46.4s-.36.2-.56.25v.04s1.73,2.52,1.73,2.52v.05h-1.17l-1.68-2.48h-.74v2.48h-1.01v-6.37ZM71.75,9.73c.15,0,.29-.03.41-.08.13-.05.24-.12.33-.21.1-.09.17-.19.23-.32.05-.12.08-.26.08-.4,0-.12-.02-.24-.07-.36-.04-.12-.11-.23-.2-.32-.09-.1-.19-.17-.32-.23-.13-.06-.27-.09-.44-.09h-1.26v2h1.22Z"/>
        <path class="cls-6" d="M77.65,9.7h3.11c.01.08.02.16.04.24s.02.18.02.27c0,.38-.06.76-.18,1.13-.12.37-.32.71-.61,1-.29.3-.63.54-1.02.7s-.84.25-1.34.25c-.46,0-.89-.08-1.29-.25s-.76-.4-1.06-.69c-.3-.3-.54-.65-.72-1.05-.17-.41-.26-.85-.26-1.33s.09-.92.26-1.33.41-.76.72-1.05.66-.53,1.06-.69.84-.25,1.29-.25c.49,0,.94.09,1.35.26.41.17.76.41,1.04.72l-.7.7c-.21-.23-.45-.41-.73-.53-.28-.12-.6-.19-.96-.19-.3,0-.59.06-.87.17-.28.11-.53.27-.74.48-.21.2-.38.45-.51.74-.12.29-.19.62-.19.98s.06.69.19.98c.12.29.29.54.51.74.21.2.46.36.74.48.28.11.57.17.88.17.41,0,.74-.06.99-.19.25-.12.46-.27.64-.44.12-.12.23-.27.33-.47.09-.19.16-.4.19-.64h-2.15v-.91Z"/>
        <path class="cls-6" d="M83.35,6.78h1.16l2.39,6.37h-1.11l-.58-1.64h-2.56l-.58,1.64h-1.11l2.39-6.37ZM84.87,10.6l-.67-1.88-.25-.75h-.05l-.25.75-.67,1.88h1.89Z"/>
        <path class="cls-6" d="M87.43,6.78h2.25c.29,0,.56.05.81.14s.47.23.65.4c.18.18.33.38.43.62.1.24.16.5.16.78,0,.22-.04.43-.11.62s-.18.37-.31.53c-.13.16-.28.29-.46.4-.17.11-.36.2-.56.25v.04s1.74,2.52,1.74,2.52v.05h-1.17l-1.68-2.48h-.74v2.48h-1.01v-6.37ZM89.65,9.73c.15,0,.29-.03.41-.08.13-.05.24-.12.33-.21.09-.09.17-.19.23-.32.06-.12.08-.26.08-.4,0-.12-.02-.24-.07-.36-.04-.12-.11-.23-.2-.32-.09-.1-.19-.17-.32-.23-.13-.06-.27-.09-.44-.09h-1.25v2h1.22Z"/>
        <path class="cls-6" d="M95.28,7.74v1.75h2.59v.94h-2.59v1.75h2.88v.96h-3.88v-6.37h3.88v.96h-2.88Z"/>
        <path class="cls-6" d="M99.03,6.78h1.2l2.83,4.62h.05l-.05-1.23v-3.39h1v6.37h-1.05l-2.97-4.85h-.05l.05,1.23v3.62h-1.01v-6.37Z"/>
      </g>
    </g>
  </g>
</svg>